<svg width="37" height="36" viewBox="0 0 37 36" fill="none" xmlns="http://www.w3.org/2000/svg">
<circle cx="18.5" cy="18" r="18" fill="#F53B49"/>
<path d="M14.704 16.706C14.248 16.706 13.822 16.634 13.426 16.49C13.042 16.334 12.706 16.13 12.418 15.878C12.13 15.626 11.902 15.326 11.734 14.978C11.578 14.63 11.5 14.258 11.5 13.862C11.5 13.466 11.578 13.094 11.734 12.746C11.902 12.398 12.13 12.098 12.418 11.846C12.706 11.594 13.042 11.396 13.426 11.252C13.822 11.096 14.248 11.018 14.704 11.018C15.148 11.018 15.562 11.096 15.946 11.252C16.342 11.396 16.684 11.594 16.972 11.846C17.26 12.098 17.488 12.398 17.656 12.746C17.824 13.094 17.908 13.466 17.908 13.862C17.908 14.258 17.824 14.63 17.656 14.978C17.488 15.326 17.26 15.626 16.972 15.878C16.684 16.13 16.342 16.334 15.946 16.49C15.562 16.634 15.148 16.706 14.704 16.706ZM14.704 15.086C14.944 15.086 15.148 14.966 15.316 14.726C15.484 14.486 15.568 14.198 15.568 13.862C15.568 13.526 15.484 13.238 15.316 12.998C15.148 12.758 14.944 12.638 14.704 12.638C14.464 12.638 14.26 12.758 14.092 12.998C13.924 13.238 13.84 13.526 13.84 13.862C13.84 14.198 13.924 14.486 14.092 14.726C14.26 14.966 14.464 15.086 14.704 15.086ZM22.426 24.158C21.97 24.158 21.544 24.086 21.148 23.942C20.764 23.786 20.428 23.582 20.14 23.33C19.852 23.078 19.624 22.778 19.456 22.43C19.3 22.082 19.222 21.71 19.222 21.314C19.222 20.918 19.3 20.546 19.456 20.198C19.624 19.85 19.852 19.55 20.14 19.298C20.428 19.046 20.764 18.848 21.148 18.704C21.544 18.548 21.97 18.47 22.426 18.47C22.87 18.47 23.284 18.548 23.668 18.704C24.064 18.848 24.406 19.046 24.694 19.298C24.982 19.55 25.21 19.85 25.378 20.198C25.546 20.546 25.63 20.918 25.63 21.314C25.63 21.71 25.546 22.082 25.378 22.43C25.21 22.778 24.982 23.078 24.694 23.33C24.406 23.582 24.064 23.786 23.668 23.942C23.284 24.086 22.87 24.158 22.426 24.158ZM22.426 22.538C22.666 22.538 22.87 22.418 23.038 22.178C23.206 21.938 23.29 21.65 23.29 21.314C23.29 20.978 23.206 20.69 23.038 20.45C22.87 20.21 22.666 20.09 22.426 20.09C22.186 20.09 21.982 20.21 21.814 20.45C21.646 20.69 21.562 20.978 21.562 21.314C21.562 21.65 21.646 21.938 21.814 22.178C21.982 22.418 22.186 22.538 22.426 22.538ZM13.012 22.808L18.106 17.066L22.624 11L24.118 12.35L19.24 17.912L14.506 24.158L13.012 22.808Z" fill="white"/>
</svg>
